HIERARCHY
ROOT Hips
{
	OFFSET 0.000000 0.000000 0.000000
	CHANNELS 6 Xposition Yposition Zposition Zrotation Yrotation Xrotation 
	JOINT LHipJoint
	{
		OFFSET 0.000000 0.000000 0.000000
		CHANNELS 3 Zrotation Yrotation Xrotation
		JOINT LeftUpLeg
		{
			OFFSET 1.363060 -1.794630 0.839290
			CHANNELS 3 Zrotation Yrotation Xrotation
			JOINT LeftLeg
			{
				OFFSET 2.448110 -6.726130 0.000000
				CHANNELS 3 Zrotation Yrotation Xrotation
				JOINT LeftFoot
				{
					OFFSET 2.562200 -7.039590 0.000000
					CHANNELS 3 Zrotation Yrotation Xrotation
					JOINT LeftToeBase
					{
						OFFSET 0.157640 -0.433110 2.322550
						CHANNELS 3 Zrotation Yrotation Xrotation
						End Site
						{
							OFFSET 0.000000 0.000000 0.000000
						}
					}
				}
			}
		}
	}
	JOINT RHipJoint
	{
		OFFSET 0.000000 0.000000 0.000000
		CHANNELS 3 Zrotation Yrotation Xrotation
		JOINT RightUpLeg
		{
			OFFSET -1.305520 -1.794630 0.839290
			CHANNELS 3 Zrotation Yrotation Xrotation
			JOINT RightLeg
			{
				OFFSET -2.542530 -6.985550 0.000000
				CHANNELS 3 Zrotation Yrotation Xrotation
				JOINT RightFoot
				{
					OFFSET -2.568260 -7.056230 0.000000
					CHANNELS 3 Zrotation Yrotation Xrotation
					JOINT RightToeBase
					{
						OFFSET -0.164730 -0.452590 2.363150
						CHANNELS 3 Zrotation Yrotation Xrotation
						End Site
						{
							OFFSET 0.000000 0.000000 0.000000
						}
					}
				}
			}
		}
	}
	JOINT LowerBack
	{
		OFFSET 0.000000 0.000000 0.000000
		CHANNELS 3 Zrotation Yrotation Xrotation
		JOINT Spine
		{
			OFFSET 0.028270 2.035590 -0.193380
			CHANNELS 3 Zrotation Yrotation Xrotation
			JOINT Spine1
			{
				OFFSET 0.056720 2.048850 -0.042750
				CHANNELS 3 Zrotation Yrotation Xrotation
				JOINT Neck
				{
					OFFSET 0.000000 0.000000 0.000000
					CHANNELS 3 Zrotation Yrotation Xrotation
					JOINT Neck1
					{
						OFFSET -0.054170 1.746240 0.172020
						CHANNELS 3 Zrotation Yrotation Xrotation
						JOINT Head
						{
							OFFSET 0.104070 1.761360 -0.123970
							CHANNELS 3 Zrotation Yrotation Xrotation
							End Site
							{
								OFFSET 0.000000 0.000000 0.000000
							}
						}
					}
				}
				JOINT LeftShoulder
				{
					OFFSET 0.000000 0.000000 0.000000
					CHANNELS 3 Zrotation Yrotation Xrotation
					JOINT LeftArm
					{
						OFFSET 3.362410 1.200890 -0.311210
						CHANNELS 3 Zrotation Yrotation Xrotation
						JOINT LeftForeArm
						{
							OFFSET 4.983000 -0.000000 -0.000000
							CHANNELS 3 Zrotation Yrotation Xrotation
							JOINT LeftHand
							{
								OFFSET 3.483560 -0.000000 -0.000000
								CHANNELS 3 Zrotation Yrotation Xrotation
								JOINT LeftFingerBase
								{
									OFFSET 0.000000 0.000000 0.000000
									CHANNELS 3 Zrotation Yrotation Xrotation
									JOINT LeftHandIndex1
									{
										OFFSET 0.715260 -0.000000 -0.000000
										CHANNELS 3 Zrotation Yrotation Xrotation
										End Site
										{
											OFFSET 0.000000 0.000000 0.000000
										}
									}
								}
								JOINT LThumb
								{
									OFFSET 0.000000 0.000000 0.000000
									CHANNELS 3 Zrotation Yrotation Xrotation
									End Site
									{
										OFFSET 0.000000 0.000000 0.000000
									}
								}
							}
						}
					}
				}
				JOINT RightShoulder
				{
					OFFSET 0.000000 0.000000 0.000000
					CHANNELS 3 Zrotation Yrotation Xrotation
					JOINT RightArm
					{
						OFFSET -3.136600 1.374050 -0.404650
						CHANNELS 3 Zrotation Yrotation Xrotation
						JOINT RightForeArm
						{
							OFFSET -5.241900 -0.000000 -0.000000
							CHANNELS 3 Zrotation Yrotation Xrotation
							JOINT RightHand
							{
								OFFSET -3.444170 -0.000000 -0.000000
								CHANNELS 3 Zrotation Yrotation Xrotation
								JOINT RightFingerBase
								{
									OFFSET 0.000000 0.000000 0.000000
									CHANNELS 3 Zrotation Yrotation Xrotation
									JOINT RightHandIndex1
									{
										OFFSET -0.622530 -0.000000 -0.000000
										CHANNELS 3 Zrotation Yrotation Xrotation
										End Site
										{
											OFFSET 0.000000 0.000000 0.000000
										}
									}
								}
								JOINT RThumb
								{
									OFFSET 0.000000 0.000000 0.000000
									CHANNELS 3 Zrotation Yrotation Xrotation
									End Site
									{
										OFFSET 0.000000 0.000000 0.000000
									}
								}
							}
						}
					}
				}
			}
		}
	}
}
MOTION
Frames: 7
Frame Time: 0.008333
-0.078349 18.026562 -12.009146 -5.796843 -5.445055 1.280108 0.873418 4.481269 2.898224 -7.759846 -7.987906 -33.349287 4.905340 14.197007 44.206255 0.547058 -1.258413 4.584497 0.101300 -2.052000 -5.649400 1.387484 -5.266538 5.103864 27.973439 13.745853 -3.653170 -1.228627 -6.076666 24.958816 0.818488 -3.997313 -3.739571 -0.000300 -0.106900 0.293800 4.130306 1.557552 5.866540 4.622945 2.517086 6.425351 -1.402497 1.249976 -7.498298 -4.853266 -3.947085 -14.841260 1.478142 -4.324765 16.468583 -0.726400 -1.974900 8.202700 -7.119416 2.830135 -1.329935 -81.457347 7.342016 25.058567 13.411251 -22.498607 -2.710863 -0.283646 -0.688692 1.114282 25.483876 26.462745 12.422800 -7.125000 0.000000 0.000000 -5.156700 59.579100 -1.838700 10.964795 -1.897247 -2.557293 71.321484 2.865812 19.812042 -13.349457 26.395273 -3.715388 0.871098 -0.170606 0.543560 -15.413531 20.295425 -5.807700 7.125000 0.000000 0.000000 7.803200 -8.984900 6.551500
-0.072186 18.021198 -11.916414 -5.880940 -5.435331 1.394856 0.813526 4.446230 2.854812 -7.545858 -8.125381 -33.301146 4.468054 13.820340 42.645512 0.483107 -0.859126 4.838285 0.072754 -1.715060 -4.719520 1.408137 -5.268191 5.134439 28.004007 13.621305 -3.333824 -1.182664 -5.995181 24.726663 0.778917 -3.913893 -4.003933 -0.002421 0.189570 -0.520863 4.317489 1.592516 5.862810 4.546795 2.589120 6.242712 -1.559422 1.272811 -7.586398 -4.787003 -3.955734 -14.575632 1.455140 -4.378844 16.423808 -0.747323 -1.998861 8.142741 -7.124420 2.826146 -1.332694 -81.440920 7.558779 25.103277 13.237302 -22.266919 -2.631400 -0.290544 -0.747764 1.137957 25.780561 29.588776 13.868867 -7.125000 0.000000 0.000000 -6.627644 62.940931 -2.977405 10.976706 -1.903799 -2.556118 71.324600 2.862259 19.628525 -13.358263 26.408681 -3.721574 0.862774 -0.192852 0.746364 -15.056508 20.681863 -5.777377 7.125000 0.000000 0.000000 8.055074 -8.615860 6.828538
-0.066387 18.017116 -11.824702 -5.958294 -5.423037 1.503065 0.754398 4.410994 2.811040 -7.335606 -8.278257 -33.261447 4.041888 13.444813 41.108781 0.412933 -0.438484 5.121930 0.051061 -1.457962 -4.009993 1.430495 -5.271855 5.167617 28.027226 13.506322 -2.997764 -1.131286 -5.904766 24.465746 0.743887 -3.840933 -4.246853 -0.005289 0.457089 -1.256021 4.476507 1.623435 5.869698 4.490666 2.651390 6.090785 -1.688979 1.293845 -7.666014 -4.741671 -3.964499 -14.360099 1.430954 -4.423203 16.347341 -0.764921 -2.020756 8.082489 -7.131791 2.822643 -1.337181 -81.458251 7.734044 25.001365 13.109667 -22.100831 -2.568740 -0.293783 -0.814536 1.594097 25.594537 33.274262 15.132845 -7.125000 0.000000 0.000000 -9.983727 66.623664 -5.585934 10.987495 -1.908467 -2.553855 71.298705 2.911806 19.489903 -13.361476 26.412018 -3.722318 0.858986 -0.213427 0.921142 -14.849588 21.069274 -5.805587 7.125000 0.000000 0.000000 8.208801 -8.229422 7.023172
-0.061650 18.016774 -11.735963 -6.016001 -5.403253 1.592218 0.697497 4.375186 2.766215 -7.136241 -8.476017 -33.246351 3.648130 13.072613 39.642030 0.324627 0.044393 5.492591 0.049341 -1.433542 -3.942639 1.457820 -5.281380 5.208380 28.029030 13.419215 -2.613000 -1.064130 -5.788324 24.121002 0.722093 -3.798456 -4.427287 -0.010333 0.640233 -1.759482 4.553443 1.642563 5.907528 4.492888 2.685204 6.028364 -1.738780 1.309629 -7.720908 -4.757342 -3.973598 -14.290557 1.403319 -4.439234 16.178519 -0.772831 -2.036635 8.021384 -7.146065 2.820559 -1.346702 -81.573959 7.788375 24.472159 13.117002 -22.125923 -2.555047 -0.286356 -0.903747 3.310563 24.001763 38.590161 15.866168 -7.125000 0.000000 0.000000 -18.833640 71.241595 -12.477951 10.995014 -1.907643 -2.548421 71.188265 3.116107 19.482116 -13.348389 26.386006 -3.707206 0.868420 -0.229133 1.014244 -15.080109 21.459521 -6.004380 7.125000 0.000000 0.000000 8.076501 -7.792283 6.977659
-0.056885 18.010658 -11.646788 -6.009269 -5.420843 1.664775 0.631278 4.337531 2.720368 -7.003206 -8.670719 -33.247953 3.245404 12.670121 38.106557 0.211646 0.621229 5.784611 0.140818 -2.139905 -5.905169 1.486500 -5.293641 5.252083 27.956193 13.363471 -2.229457 -0.998949 -5.677257 23.784560 0.726459 -3.813984 -4.475686 -0.009432 0.583942 -1.604796 4.545902 1.663921 5.926893 4.473752 2.709312 6.021618 -1.740656 1.326762 -7.736730 -4.771043 -3.981626 -14.377105 1.403519 -4.438744 16.103505 -0.772482 -2.039421 8.013232 -7.148661 2.826950 -1.349639 -81.718394 7.876995 24.328496 13.027660 -21.991816 -2.520458 -0.289784 -0.901539 3.370016 24.061878 38.412496 15.843285 -7.125000 0.000000 0.000000 -18.561646 71.085996 -12.278705 10.995405 -1.900117 -2.540376 71.073997 3.407204 19.606916 -13.366599 26.399148 -3.700234 0.884549 -0.249282 1.029901 -15.513762 22.042927 -6.347391 7.125000 0.000000 0.000000 7.827662 -7.125785 6.857986
-0.052091 17.999016 -11.557194 -5.940861 -5.474206 1.721447 0.556141 4.298109 2.673541 -6.933658 -8.862492 -33.265536 2.834096 12.238634 36.505309 0.075047 1.287995 6.001360 0.321497 -3.545732 -9.810586 1.516479 -5.308520 5.298600 27.811915 13.337747 -1.847084 -0.935660 -5.571334 23.456064 0.755862 -3.885033 -4.397710 -0.002840 0.298478 -0.820170 4.457506 1.687411 5.928583 4.434175 2.724131 6.068162 -1.696661 1.345183 -7.715155 -4.782859 -3.988628 -14.613053 1.430361 -4.422440 16.118279 -0.764228 -2.029676 8.055765 -7.140081 2.841454 -1.346274 -81.890323 7.998433 24.553852 12.845785 -21.705334 -2.465870 -0.303601 -0.811830 1.843471 25.704043 32.976705 15.096607 -7.125000 0.000000 0.000000 -9.558682 66.361445 -5.292106 10.988975 -1.886176 -2.529834 70.956064 3.781379 19.858620 -13.414767 26.449766 -3.701053 0.907088 -0.273683 0.971435 -16.141843 22.811214 -6.828438 7.125000 0.000000 0.000000 7.467277 -6.239756 6.667332
-0.049440 18.021271 -11.466288 -5.932826 -5.507840 1.823586 0.462363 4.293226 2.664870 -6.598600 -9.230784 -32.815931 2.450725 11.773641 34.946982 0.046289 1.490017 6.092383 0.205849 -1.984847 -5.497490 1.549913 -5.324798 5.335855 27.714892 13.290057 -1.510774 -0.873648 -5.468343 23.132469 0.773159 -3.918909 -4.306670 -0.001959 -0.020068 0.055133 4.436715 1.692406 5.813135 4.403084 2.717249 6.155249 -1.676876 1.352263 -7.606078 -4.786100 -3.991763 -14.912982 1.452382 -4.394392 16.161849 -0.758038 -2.013781 8.118639 -7.135929 2.852754 -1.345355 -82.033974 7.990758 24.561869 12.726565 -21.505858 -2.428973 -0.303414 -0.756083 1.200060 25.949587 29.715108 14.029085 -7.125000 0.000000 0.000000 -6.438882 63.130749 -2.902618 10.977675 -1.869851 -2.517946 70.904510 4.204043 20.110864 -13.573853 26.654059 -3.769773 0.912758 -0.266520 0.846600 -16.497826 22.803353 -6.972212 7.125000 0.000000 0.000000 7.238912 -6.206204 6.467672
